<?xml version="1.0" standalone="no"?>
<!DOCTYPE svg PUBLIC "-//W3C//DTD SVG 20010904//EN"
 "http://www.w3.org/TR/2001/REC-SVG-20010904/DTD/svg10.dtd">
<svg version="1.0" xmlns="http://www.w3.org/2000/svg"
 width="96.000000pt" height="96.000000pt" viewBox="0 0 96.000000 96.000000"
 preserveAspectRatio="xMidYMid meet">

<g transform="translate(0.000000,96.000000) scale(0.100000,-0.100000)"
fill="#010606" stroke="none">
<path d="M212 869 c-47 -14 -109 -80 -123 -131 -22 -85 13 -184 80 -224 l31
-18 2 -199 c3 -178 5 -201 21 -211 12 -8 22 -8 35 0 14 9 17 29 20 120 2 97 5
111 23 127 12 9 30 17 40 17 17 0 19 -11 21 -126 3 -108 6 -128 20 -138 13 -8
23 -8 35 0 15 10 18 30 21 138 2 77 7 126 13 126 5 0 23 -7 39 -15 l29 -15 3
-112 c3 -93 6 -113 21 -122 12 -8 22 -8 35 0 14 9 17 29 20 123 l3 111 39 0
39 0 3 -111 c3 -94 6 -114 21 -123 12 -8 22 -8 35 0 15 10 17 31 20 161 l3
150 -62 6 c-74 6 -140 44 -182 104 -23 31 -30 55 -34 107 l-6 66 -61 0 c-73 0
-131 -24 -168 -69 -15 -17 -32 -31 -38 -31 -18 0 -50 63 -50 98 0 67 38 110
109 121 41 7 61 33 45 59 -13 20 -55 25 -102 11z"/>
<path d="M560 712 c0 -140 13 -174 80 -209 55 -29 105 -29 160 0 67 35 80 69
80 209 0 108 -2 118 -18 118 -12 0 -25 -14 -36 -37 l-17 -38 -89 0 -89 0 -17
38 c-11 23 -24 37 -36 37 -16 0 -18 -10 -18 -118z m110 -47 c26 -32 -13 -81
-47 -59 -35 22 -23 74 17 74 10 0 23 -7 30 -15z m160 0 c26 -32 -13 -81 -47
-59 -35 22 -23 74 17 74 10 0 23 -7 30 -15z"/>
</g>
</svg>
